/* XPM */
static char *photoquick2[] = {
/* columns rows colors chars-per-pixel */
"96 96 8 1 ",
"  c black",
". c #FF7053",
"X c #008B00",
"o c orange",
"O c yellow",
"+ c blue",
"@ c #96E9FF",
"# c None",
/* pixels */
"################################################################################################",
"################################################################################################",
"################################################################################################",
"################################################################################################",
"################################################################################################",
"################################################################################################",
"                                                                                                ",
"                                                                                                ",
"                                                                                                ",
"     @@@@@@@@@@@@@@@@@@@@@@@@@@@@@@@@@@@@@@@@@@@@@@@@@@@@@@@@@@@@@@@@@@@@@@@@@@@@@@@@@@@@@@     ",
"    @@@@@@@@@@@@@@@@@@@@@@@@@@@@@@@@@@@@@@@@@@@@@@@@@@@@@@@@@@@@@@@@@@@@@@@@@@@@@@@@@@@@@@@@    ",
"   @@@@@@@@@@@@@@@@@@@@@@@@@@@@@@@@@@@@@@@@@@@@@@@@@@@@@@@@@@@@@@@@@@@@@@@@@@@@@@@@@@@@@@@@@@   ",
"   @@@@@@@@@@@@@@@@@@@@@@@@@@@@@@@@@@@@@@@@@@@@@@@@@@@@@@@@@@@@@@@@@@@@@@@@@@@@@@@@@@@@@@@@@@   ",
"   @@@@@@@@@@@@@@@@@@@@@@@@@@@@@@@@@@@@@@@@@@@@@@@@@@@@@@@@@@@@@@@@@@@@@@@@@@@@@@@@@@@@@@@@@@   ",
"   @@@@@@@@@@@@@@@@@@@@@@@@@@@@@@@@@@@@@@@@@@@@@@@@@@@@@@@@@@@@@@@@@@@@@@@@@@@@@@@@@@@@@@@@@@   ",
"   @@@@@@@@@@@@@@@@@@@@@@@@@@@@@@@@@@@@@@@@@@@@@@....@@@@@@@@@@@@@@@@@@@@@@@@@@@@@@@@@@@@@@@@   ",
"   @@@@@@@@@@@@@@@@@@@@@@@@@@@@@@@@@@@@@@@@@@@@........@@@@@@@@@@@@@@@@@@@@@@@@@@@@@@@@@@@@@@   ",
"   @@@@@@@@@@@@@@@@@@@@@@@@@@@@@@@@@@@@@@@@@@@..........@@@@@@@@@@@@@@@@@@@@@@@@@@@@@@@@@@@@@   ",
"   @@@@@@@@@@@@@@@@@@@@@@@@@@@@@@@@@@@@@@@@@@@..........@@@@@@@@@@@@@@@@@@@@@@@@@@@@@@@@@@@@@   ",
"   @@@@@@@@@@@@@@@@@@@@@@@@@@@@@@@@@@@@@@@@@@............@@@@@@@@@@@@@@@@@@@@@@@@@@@@@@@@@@@@   ",
"   @@@@@@@@@@@@@@@@@@@@@@@@@@@@@@@@@@@@@@@@@@............@@@@@@@@@@@@@@@@@@@@@@@@@@@@@@@@@@@@   ",
"   @@@@@@@@@@@@@@@@@@@@@@@@@@@@@@@@@@@@@@@@@@............@@@@@@@@@@@@@@@@@@@@@@@@@@@@@@@@@@@@   ",
"   @@@@@@@@@@@@@@@@@@@@@@@@@@@@@@@@@@@@@@@@@@............@@@@@@@@@@@@@@@@@@@@@@@@@@@@@@@@@@@@   ",
"   @@@@@@@@@@@@@@@@@@@@@@@@@@@@@@@@@@@@@@@@@@@..........@@@@@@@@@@@@@@@@@@@@@@@@@@@@@@@@@@@@@   ",
"   @@@@@@@@@@@@@@@@@@@@@@@@@@@@@@@@@@@@@@@@@@@..........@@@@@@@@@@@@@@@@@@@@@@@@@@@@@@@@@@@@@   ",
"   @@@@@@@@@@@@@@@@@@@@@@@@@@@@@@@@@@@@@@@@@@@@........@@@@@@@@@@@@@@@@@@@@@@@@@@@@@@@@@@@@@@   ",
"   @@@@@@@@@@@@@@@@@@@@@@@@@@@@@@@@@@@@@@@@@@@@@@....@@@@@@@@@@@@@@@@@@@@@@@@@@@@@@@@@@@@@@@@   ",
"   @@@@@@@@@@@@@@@@@@@@@@@@@@@@@@@@@@@@@@@@@@@@@@@@@@@@@@@@@@@@@@@@@@@@@@@@@@@@@@@@@@@@@@@@@@   ",
"   @@@@@@@@@@@@@@@@@@@@@@@@@@@@@@@@@@@@@@@@@@@@@@@@@@@@@@@@@@@@@@@@@@@@@@@@@@@@@@@@@@@@@@@@@@   ",
"   @@@@@@@@@@@@@@@@@@@@@@@@@@@@@@@@@@@@@@@@@@@@@@@@@@@@@@@@@@@@@@@@@@@@@@@@@@@@@@@@@@@@@@@@@@   ",
"   @@@@@@@@@@@@@@@@@@@@@@@@@@@+++@@@@@@@@@@@@@@@@@@@@@@@@@@@@@@@@@@@@@@@@@@@@@@@@@@@@@@@@@@@@   ",
"   @@@@@@@@@@@@@@@@@@@@@@@@@@@+++@@@@@@@@@@@@@@@@@@@@@@@@@@@@@@@@@@@@@@@@@@@@@@@@@@@@@@@@@@@@   ",
"   @@@@@@@@@@@@@@@@@@@@@@@@@++++++@@@@@@@@@@@@@@@@@@@@@@@@@@@@@@@@@@@@@@@@@@@@@@@@@@@@@@@@@@@   ",
"   @@@@@@@@@@@@@@@@@@@@@@@+++++O+++@@@@@@@@@@@@@@@@@@@@@@@@@@@@@@@@@@@@@@@@@@@@@@@@@@@@@@@@@@   ",
"   @@@@@@@@@@@@@@@@@@@@@+++++OOOO+++@@@@@@@@@@@@@@@@@@@@@@@@@@@@@@@@@@@@@@@@@@@@@@@@@@@@@@@@@   ",
"   @@@@@@@@@@@@@@@@@@@@++++OOOOOOO+++@@@@@@@@@@@@@@@@@@@@@@@@@@@@@@@@@@@@@@@@@@@@@@@@@@@@@@@@   ",
"   @@@@@@@@@@@@@@@@@@@+++OOOOOOOOOO+++@@@@@@@@@@@@@@@@@@@@@@@@@@@@@@@@@@@@@@@@@@@@@@@@@@@@@@@   ",
"   @@@@@@@@@@@@@@@@@@+++OOOOOOOOOOOO+++@@@@@@@@@@@@@@@@@@@@@@@@@@@@@@@@@@@@@@@@@@@@@@@@@@@@@@   ",
"   @@@@@@@@@@@@@@@@++++OOOOOOOOOOOOOO+++@@@@@@@@@@@@@@@@@@@@@@@@@@@@@@@@@@@@@@@@@@@@@@@@@@@@@   ",
"   @@@@@@@@@@@@@@+++++OOOOOOOOOOOOOOOO+++@@@@@@@@@@@@@@@@@@@@@@@@++@@@@@@@@@@@@@@@@@@@@@@@@@@   ",
"   @@@@@@@@@@@@++++++OOOOOOOOOOOOOOOOOO+++@@@@@@@@@@@@@@@@@@@@@++++++@@@@@@@@@@@@@@@@@@@@@@@@   ",
"   @@@@@@@@@@@+++++OOOOOOOOOOOOOOOOOOOOO+++@@@@@@@@@@@@@@@@@@+++++++++@@@@@@@@@@@@@@@@@@@@@@@   ",
"   @@@@@@@@@@++++OOOOOOOOOOOOOOOOOOOOOOOO+++@@@@@@@@@@@@+++++++++OO++++@@@@@@@@@@@@@@@@@@@@@@   ",
"   @@@@@@@@@+++OOOOOOOOOOOOOOOOOOOOOOOOOOO+++@@@@@@@@@+++++++++OOOOOO+++@@@@@@@@@@@@@@@@@@@@@   ",
"   @@@@@@@++++OOOOOOOOOOOOOOOOOOOOOOOOOOOOO+++@@@@@@++++++OOOOOOOOOOOO+++@@@@@@@@@@@@@@@@@@@@   ",
"   @@@@@+++++OOOOOOOOOOOOOOOOOOOOooOOOOOOOOO+++@@@++++++OOOOOOOOOOOOOOO+++@@@@@@@@@@@@@@@@@@@   ",
"   @@@++++++OOOOOOOOOOOOOOOOOOOOOoooOOOOOOOOO+++++++++OOOOOOOOOOOOOOOOOO+++@@@@@@@@@@@@@@@@@@   ",
"   @++++++OOOOOOOOOOOOOOOOOOOOOOOOoooOOOOOOOOO++++++OOOOOOOOOOOOOOOOOOOOO+++@@@@@@@@@@@@@@@@@   ",
"   +++++OOOOOOOOOOOOOOOOOOOOOOOOOOOoooOOOOOOOOO+++OOOOOOOOOOOOOOOOOOOOOOOO+++@@@@@@@@@@@@@@@@   ",
"   +++OOOOOOOOOOOOOOOOOOOOOOOOOOOOOOoooOOOOOOOOO+++OOOOOOOOOOOOOOOOOOOOOOOO+++@@@@@@@@@@@@@@@   ",
"   +OOOOOOOOOOOOOOOOOOOOOOOOOOOOOOOOOooOOOOOOOOOO+++OOOOOOOOOOOOOOOOOOOOOOOO+++@@@@@@@@@@@@@@   ",
"   OOOOOOOOOOOOOOOOOOOOOOOOXXXOOOOOOOOOOOOOOOOOOOO+++OOOOOOOOOOOOOOOOOOOOOOOO+++@@@@@@@@@@@@@   ",
"   OOOOOOOOOOOOOOOOOOOOOOOOXXXOOOOOOOOOOOOOOOOOOOOO+++OOOOOOOOOOOOOOOOOOOOOOOO+++@@@@@@@@@@@@   ",
"   OOOOOOOOOOOOOOOOOOOOOOOXXXXXOOOOOOOOOOOOOOOOOOOOO+++OOOOOOOOOOOOOOOOOOOOOOOO+++@@@@@@@@@@@   ",
"   OOOOOOOOOOOOOOOOOOOOOOXXXXXXXOOOOOOOOOOOOOOOOOOOOO+++OOOOOOOOOOOOOOOOOOOOOOOO+++@@@@@@@@@@   ",
"   OOOOOOOOOOOOOOOOOOOOOOXXXXXXXOOOOOOOOOOOOOOOOOOOOOO+++OOOOOOOOOOOOOOOOOOOOOOOO+++@@@@@@@@@   ",
"   OOOOOOOOOOOOOOOOOOOOOXXXXXXXXXOOOOOOOOOOOOOOOOOOOOOO+++OOOOOOOOOOOOOOOOOOOOOOOO+++@@@@@@@@   ",
"   OOOOOOOOOOOOOOOOOOOOOXXXXXXXXXOOOOOOOOOOOOOOOOOOOOOOO+++OOOOOOOOOOOOOOOOOOOOOOOO+++@@@@@@@   ",
"   OOOOOOOOOOOOOOOOOOOOOOXXXXXXXOOOOOOOOOOOOOOOOOOOOOOOOO+++OOOOOOOOOOOOOOOOOOOOOOOO+++@@@@@@   ",
"   OOOOOOOOOOOOOOOOOOOOOOXXXXXXXOOOOOOOOOOOOOOOOOOOOOOOOOO++OOOOOOOOOOOOOOOOOOOOOOOOO+++@@@@@   ",
"   OOOOOOOOOOOOOOOOOOOOOOOXXXXXOOOOOOOOOOOOOOOOOOOOOOOOOOOOOOOOOOOOOOOOOOOOOOOOOOOOOOO+++@@@@   ",
"   OOOOOOOOOOOOOOOOOOOOOOOXXXXXOOOOOOOOOOOOOOOOOOOOOOOOOOOOOOOOOOOOOOOOOOOOOOOOOOOOOOOO+++@@@   ",
"   OOOOOOOOOOOOOOOOOOOOOOOOXXXOOOOOOOOOOOOOOOOOOOOOOOOOOOOOOOOOOOOOOOOOOOOOOOOOOOOOOOOOO++++@   ",
"   OOOOOOOOOXXXOOOOOOOOOOOOXXXOOOOOOOOOOOOXXXOOOOOOOOOOOOOOOOOOOOOOOOOOOOOOOOOOOOOOOOOOOO++++   ",
"   OOOOOOOOOXXXOOOOOOOOOOOXXXXXOOOOOOOOOOOXXXOOOOOOOOOOOOOOOOOOOOOOOOOOOOOOOOOOOOOOOOOOOOO+++   ",
"   OOOOOOOOOXXXOOOOOOOOOOOXXXXXOOOOOOOOOOXXXXXOOOOOOOOOOOOOOOOOOOOOOOOOOOOOOOOOOOOOOOOOOOOOO+   ",
"   OOOXXXOOOXXXOOOXXXOOOXXXXOXXXXOOOOOOXXXXXXXXXOOOOOOXXXOOOXXXOOOOOOOOOXXXOOOOOOXXXOOOOOOOOO   ",
"   OOOXXXOOOXXXOOOXXXOOOXXXOOOXXXOOOOOOXXXXXXXXXOOOOOOXXXOOOXXXOOOOOOOOOXXXOOOOOOXXXOOOOOOOOO   ",
"   OXXXXXOOOXXXOOOXXXOOOXXXOOOXXXXXOOXXXXXXXXXXXXXOOXXXXXOOOXXXXOOOOOOOXXXXXOOOOOXXXOOOOOOOOO   ",
"   XXXXXXOOOXXXXXXXXXXXXXXXOOOOXXXXXXXXXXOOOOOXXXXXXXXXOOOOXXXXXXOOOOOXXXXXXXOOOOXXXOOOOOXXXX   ",
"    XXXXXOOOXXXXXXXXXXXXXXXOOOOOXXXXXXXXOOOOOOOXXXXXXXOOOOXXXXXXXOOOOOXXXXXXXOOOOXXXOOOOXXXX    ",
"     XXXXOOOXXXXXXXXXXXXXXXOOOOOOXXXXXXOOOOOOOOOXXXXXXOOOXXXXXXXXXOOOXXXXXXXXXOOOXXXOOOXXXX     ",
"                                                                                                ",
"                                                                                                ",
"                                                                                                ",
"################################################################################################",
"################################################################################################",
"################################################################################################",
"################################################################################################",
"################################################################################################",
"################################################################################################",
"################################################################################################",
"################################################################################################",
"################################################################################################",
"################################################################################################",
"################################################################################################",
"################################################################################################",
"################################################################################################",
"################################################################################################",
"################################################################################################",
"################################################################################################",
"################################################################################################",
"################################################################################################",
"################################################################################################",
"################################################################################################",
"################################################################################################"
};
